<?xml version="1.0" encoding="utf-8"?>
<!-- Generator: Adobe Illustrator 16.0.3, SVG Export Plug-In . SVG Version: 6.00 Build 0)  -->
<!DOCTYPE svg PUBLIC "-//W3C//DTD SVG 1.1//EN" "http://www.w3.org/Graphics/SVG/1.1/DTD/svg11.dtd">
<svg version="1.1" id="Layer_1" xmlns="http://www.w3.org/2000/svg" xmlns:xlink="http://www.w3.org/1999/xlink" x="0px" y="0px"
	 width="371px" height="101.995px" viewBox="0 0 371 101.995" enable-background="new 0 0 371 101.995" xml:space="preserve">
<g>
	<g>
		<path fill="#FF7373" d="M38.227,60.198l-4.479-8.257l0.066-4.35l11.494-18.967L56.8,47.591l0.065,4.352L52.429,60.2l-0.342,0.908
			c-1.464,3.217-1.98,7.307-1.279,10.186c0.175,0.713,0.427,1.418,0.676,2.104c0.466,1.293,0.906,2.512,0.835,3.725
			c-0.07,1.125-0.946,1.742-1.676,1.936c-0.205,0.051-0.413,0.078-0.615,0.078c-0.472,0-1.136-0.156-1.611-0.895
			c-0.724-1.125-0.293-2.945,0.097-4.213c0.492-1.615,1.441-6.715-0.586-8.912c-0.6-0.656-1.386-0.99-2.332-0.99
			c-0.315,0-0.649,0.041-0.993,0.113c-2.373,0.51-3.182,3.709-3.278,5.33c-0.132,2.209,0.393,4.348,0.897,6.412l0.113,0.463
			c0.108,0.449,0.255,0.916,0.396,1.369c0.595,1.93,1.108,3.6-0.375,4.822c-0.397,0.328-0.964,0.506-1.591,0.506
			c-0.185,0-0.369-0.014-0.551-0.043c-0.752-0.133-1.385-0.52-1.692-1.035c-0.933-1.555-0.264-3.533,0.386-5.445l0.006-0.018
			c0.127-0.381,0.25-0.738,0.357-1.088c0.982-3.215,1.255-6.23,0.809-8.971c-0.293-1.811-0.696-3.867-1.452-5.426L38.227,60.198z"/>
		<path fill="#FF7373" d="M80.005,52.524c1.681,1.615,4.206,2.895,7.232,2.895c1.28,0,2.49-0.338,2.49-1.211
			c0-0.709-1.348-0.943-3.164-1.244c-3.7-0.671-9.352-1.617-9.352-7.57c0-3.803,3.162-7.434,9.316-7.434
			c3.671,0,6.967,1.043,9.524,3.127l-3.636,4.811c-1.953-1.477-4.471-2.219-6.592-2.219c-1.347,0-1.716,0.434-1.716,1.012
			c0,0.703,1.414,0.975,3.296,1.344c3.699,0.707,9.185,1.779,9.185,7.298c0,4.945-3.666,7.805-9.689,7.805
			c-4.777,0-8.038-1.416-10.429-3.566L80.005,52.524z"/>
		<polygon fill="#FF7373" points="98.81,38.294 115.835,38.294 115.835,44.216 105.606,44.216 105.606,46.433 115.597,46.433 
			115.597,52.355 105.606,52.355 105.606,54.815 115.835,54.815 115.835,60.733 98.81,60.733 		"/>
		<polygon fill="#FF7373" points="118.86,38.294 135.882,38.294 135.882,44.216 125.655,44.216 125.655,46.433 135.647,46.433 
			135.647,52.355 125.655,52.355 125.655,54.815 135.882,54.815 135.882,60.733 118.86,60.733 		"/>
		<path fill="#FF7373" d="M138.909,38.294h10.025c7.066,0,12.313,4.041,12.313,11.203c0,7.166-5.246,11.236-12.277,11.236h-10.061
			V38.294z M148.935,54.811c3.398,0,5.416-2.49,5.416-5.314c0-3.029-1.748-5.281-5.381-5.281h-3.264v10.595H148.935z"/>
		<path fill="#FF7373" d="M183.313,37.929c6.932,0,12.279,4.706,12.279,11.604c0,6.894-5.348,11.605-12.279,11.605
			c-6.928,0-12.277-4.711-12.277-11.605C171.036,42.635,176.386,37.929,183.313,37.929 M183.313,43.911
			c-3.262,0-5.381,2.49-5.381,5.621c0,3.126,2.119,5.619,5.381,5.619c3.264,0,5.385-2.492,5.385-5.619
			C188.698,46.401,186.577,43.911,183.313,43.911"/>
		<polygon fill="#FF7373" points="198.017,38.294 215.04,38.294 215.04,44.216 204.812,44.216 204.812,46.433 214.804,46.433 
			214.804,52.355 204.812,52.355 204.812,60.733 198.017,60.733 		"/>
		<path fill="#FF7373" d="M225.3,49.53c0-6.93,5.314-11.605,12.346-11.605c5.889,0,8.848,3.434,10.191,6.527l-5.85,2.725
			c-0.572-1.748-2.324-3.266-4.342-3.266c-3.262,0-5.449,2.486-5.449,5.619c0,3.13,2.188,5.621,5.449,5.621
			c2.018,0,3.77-1.518,4.342-3.263l5.85,2.689c-1.309,2.994-4.303,6.559-10.191,6.559C230.614,61.135,225.3,56.426,225.3,49.53"/>
		<path fill="#FF7373" d="M261.024,37.929c6.932,0,12.279,4.706,12.279,11.604c0,6.894-5.348,11.605-12.279,11.605
			c-6.93,0-12.277-4.711-12.277-11.605C248.747,42.635,254.095,37.929,261.024,37.929 M261.024,43.911
			c-3.26,0-5.379,2.49-5.379,5.621c0,3.126,2.119,5.619,5.379,5.619c3.264,0,5.385-2.492,5.385-5.619
			C266.409,46.401,264.288,43.911,261.024,43.911"/>
		<polygon fill="#FF7373" points="275.726,38.294 282.522,38.294 282.522,54.815 291.032,54.815 291.032,60.733 275.726,60.733 		
			"/>
		<path fill="#FF7373" d="M304.153,37.929c6.93,0,12.277,4.706,12.277,11.604c0,6.894-5.348,11.605-12.277,11.605
			s-12.279-4.711-12.279-11.605C291.874,42.635,297.224,37.929,304.153,37.929 M304.153,43.911c-3.262,0-5.381,2.49-5.381,5.621
			c0,3.126,2.119,5.619,5.381,5.619s5.383-2.492,5.383-5.619C309.536,46.401,307.415,43.911,304.153,43.911"/>
		<path fill="#FF7373" d="M328.11,53.668h-2.459v7.064h-6.795V38.294h11.979c5.244,0,8.072,3.498,8.072,7.705
			c0,3.871-2.256,5.924-4.037,6.794l4.07,7.939h-7.736L328.11,53.668z M329.79,44.216h-4.139v3.533h4.139
			c1.143,0,2.221-0.539,2.221-1.785C332.011,44.755,330.933,44.216,329.79,44.216"/>
	</g>
</g>
</svg>
